Patient4_TMGait_0pt3_01_left_17_EMG.mot
version=1
nRows=23
nColumns=33
inDegrees=no
endheader
time	1LAddLong	2LGlutMax	3LGlutMed	4LIliopsoas	5LSemiMemb	6LBicFemLong	7LRecFem	8LVastMed	9LVastLat	10LGasMed	11LTibAnt	12lTibPost	13LPeroneusLong	14LSol	15LExtDigLong	16LFlexDigLong	17RAddLong	18RGlutMax	19RGlutMed	20RIliopsoas	21RSemiMemb	22RBicFemLong	23RRecFem	24RVastMed	25RVastLat	26RGasMed	27RTibAnt	28RTibPost	29RPeroneusLong	30RSol	31RExtDigLong	32RFlexDigLong
33.58	0.008392	-0.052643	-0.015564	0.001221	-0.004578	0.042114	-0.005035	0.007935	-0.03479	-0.022736	-0.005341	-0.003815	0.044098	-0.031128	-0.15289	-0.013885	0.040741	0.054474	0.48035	-0.039978	-0.026855	-0.103	-0.76721	0.56397	0.13687	0.014191	-0.12329	0.047913	-0.06546	0.28107	-0.001068	0.010223
33.581	0.008698	-0.054626	-0.021057	0.009155	-0.008545	0.019073	-0.019226	0.002594	-0.031128	-0.040588	-0.06012	0.002899	0.007782	-0.033722	-0.2478	-0.016327	0.076904	0.025482	0.39642	-0.012817	0.1297	-0.086365	-0.15976	0.36941	0.064087	0.007477	-0.023804	0.004578	0.97061	0.3273	-0.001221	-0.009155
33.582	-0.00061	-0.075226	-0.031433	0.026398	0.002594	0.007629	-0.012817	0.007019	-0.03479	-0.01709	-0.011292	-0.00412	-0.021515	-0.079803	-0.040741	-0.005798	0.075073	-0.000916	0.29648	0.015717	0.13138	-0.077209	0.17502	0.1857	-0.00473	0.002289	-0.016174	-0.025482	1.1292	0.28015	0.004578	-0.014954
33.583	0.008698	-0.065308	-0.028381	-0.001221	-0.002747	-0.01236	-0.028687	0.007019	-0.026855	-0.009155	0.074005	-0.010986	-0.043793	-0.073547	0.37018	-0.016174	0.019684	0.062408	-0.11093	0.015259	-0.20905	0.036774	-0.009613	0.1831	-0.08728	0.003357	-0.085144	-0.019226	0.59418	0.089417	-0.002747	-0.01358
33.584	0.010071	-0.058899	-0.008545	-0.027161	0.004883	-0.019226	-0.024261	0	-0.024567	-0.009918	0.077209	-0.005341	-0.037842	-0.026093	0.25421	0.000763	-0.029297	0.20813	0.3569	-0.037079	-0.29144	0.12405	-0.32562	0.73746	-0.095673	0.00473	-0.10834	-0.066986	0.60547	0.04425	-0.005035	-0.013123
33.585	0.003815	-0.045166	-0.018005	0.001678	0.009155	-0.033569	-0.010223	0.001068	-0.016479	-0.017395	0.084839	-0.006866	0.005493	0.016479	0.27679	-0.016785	-0.05188	0.21606	0.78217	-0.058136	-0.021515	0.2095	-0.81619	0.92316	-0.008087	0.002747	-0.024414	-0.011444	0.3186	0.041504	-0.005188	-0.018768
33.586	0.016632	-0.041962	-0.053253	0.015259	0.000916	-0.062561	-0.002899	-0.005646	-0.018616	-0.023651	-0.047913	-0.00473	-0.00824	-0.024109	0.13046	-0.002441	-0.025024	0.15686	0.69305	-0.062408	0.31052	0.31265	-1.2677	0.44784	0.09201	-0.001068	0.041809	-0.064087	0.13382	-0.015106	-0.001831	-0.016937
33.587	0.011597	-0.072479	0.04364	0.003204	-0.000153	-0.054169	-0.010223	-0.009155	-0.019531	-0.033264	-0.11643	-0.000305	-0.020905	-0.013123	0.044098	-0.012512	0.001068	0.024261	0.168	-0.040894	0.35019	0.31296	-0.94772	-0.22308	0.096588	-0.00061	0.058289	-0.030823	0.2327	-0.033112	-0.003357	-0.010986
33.588	0.007782	-0.055389	0.031433	-0.003815	-0.00412	-0.04303	0.001526	-0.003052	-0.034027	-0.036469	-0.002136	0.000916	-0.019989	0.056458	0.10574	-0.00885	0.002289	0.16876	0.4042	0.002899	-0.031586	0.29312	-0.65796	-0.62408	0.065765	-0.000458	0.0737	-0.031281	-0.10559	0.009308	0	-0.011597
33.589	0.010681	-0.002289	0.025787	0.000305	0.006104	0.009155	0.02121	-0.002441	-0.056763	-0.036163	0.086975	0.002441	-0.054474	0.078888	-0.13031	-0.009308	-0.003967	0.25192	0.49179	-0.001221	-0.3624	0.066833	-0.45792	-0.57098	0.070343	0.001526	0.083618	-0.035858	-0.46524	-0.005188	-0.000153	-0.013275
33.59	0.00824	0.006714	0.021667	-0.01358	0.001526	0.050507	0.035553	-0.000458	-0.063782	-0.028839	0.042267	-0.001068	-0.021973	0.010986	-0.25818	-0.017395	0.017242	0.14389	0.14725	-0.048523	-0.12116	-0.14084	-0.18219	-0.50919	-0.023499	0.003357	0.018463	-0.036011	0.35629	-0.024109	-0.002289	-0.009766
33.591	-0.002747	-0.013428	-0.017395	-0.010071	-0.001068	0.07782	0.039825	0.00412	-0.068054	-0.010071	-0.024567	0.000305	0.04425	-0.033875	-0.19821	-0.015717	0.022888	-0.029144	-0.46356	-0.009918	-0.17456	-0.11688	-0.19547	-0.39368	-0.021973	-0.001526	0.016937	-0.024719	0.0177	-0.057678	-0.002747	-0.00412
33.592	0.000458	-0.017242	-0.019226	0.007172	-0.013428	0.078735	0.035858	0.028839	-0.081482	-0.014801	-0.075378	0.009155	0.05661	-0.05722	-0.19531	0.007172	0.00061	-0.11429	-1.1211	0.020752	-0.16052	-0.10346	-0.17807	-0.26016	-0.042419	-0.012207	0.029449	-0.021667	0.020447	-0.015411	-0.001373	-0.00946
33.593	-0.005798	-0.027618	-0.020294	0.026093	-0.040283	0.10468	0.048828	-0.015411	-0.080719	-0.009003	-0.015411	-0.002289	0.034637	-0.14816	-0.20447	-0.00946	0.009155	-0.13245	-1.4256	0.097504	-0.006256	-0.13931	0.027161	-0.37872	0.026245	-0.016479	-0.1358	-0.024109	1.6322	-0.095367	0.000763	-0.005341
33.594	0.002747	-0.019073	0.018311	0.026398	-0.018921	0.1004	0.055084	0.002289	-0.079193	0.002136	0.001373	-0.002899	0.01297	-0.16525	-0.075531	0.015106	0.018158	-0.070496	-0.59647	0.10239	0.021057	-0.020447	0.11887	-0.35248	0.26077	-0.033417	0.017548	-0.037384	1.1031	-0.11597	-0.001984	-0.001373
33.595	0.002441	-0.010223	0.018005	0.027161	-0.011292	0.06897	0.046082	0.014038	-0.076599	-0.003662	0.027466	0.000153	0.002136	-0.13428	-0.018005	0.008392	0.035095	-0.057068	0.052795	-0.009613	-0.1355	-0.037231	0.34821	-0.14191	0.24323	-0.036469	0.046997	-0.083618	0.026093	-0.092773	-0.000305	-0.002594
33.596	0.008087	0.002441	0.0354	0.016937	0.011139	0.076599	0.054474	0.009308	-0.076904	-0.015411	-0.005035	-0.007172	-0.006714	-0.12405	0.032043	0.002899	-0.004883	-0.071106	0.15167	-0.075531	-0.045624	-0.06897	0.27664	0.20844	0.15488	-0.032043	0.000916	-0.001068	0.86166	-0.066376	-0.002747	-0.003357
33.597	-0.001373	-0.008392	0.009003	0.005951	0.001984	0.058746	0.024414	0.00061	-0.072021	-0.013123	0.016479	-0.003204	-0.013123	-0.066071	0.045776	0.003967	-0.007324	-0.032959	0.858	-0.16647	0.15289	-0.22308	0.23529	0.6247	0.1004	0.013885	-0.17441	0.035248	-0.67062	-0.22644	-0.005798	-0.000916
33.598	0.005493	-0.044708	-0.016022	-0.00946	-0.007629	0.055695	0.037994	0.00885	-0.067749	-0.016937	-0.019226	-0.003662	0.012512	-0.05127	0.078125	0.004883	0.000763	-0.045013	0.34515	0.00061	0.10239	-0.25253	0.12543	0.22064	0.25848	0.058746	-0.20035	-0.001068	0.23636	-0.31998	-0.001984	-0.003967
33.599	0.005341	-0.013733	0.010529	-0.005035	-0.003967	0.067291	0.049896	0.007324	-0.080109	-0.028534	-0.050659	0.001221	0.006714	-0.065002	0.051727	0.00473	-0.002289	-0.020294	0.90912	-0.041656	-0.023651	-0.10056	0.1236	-0.18662	0.35767	0.030518	0.046692	0.054932	-0.49408	-0.15549	-0.003052	-0.003052
33.6	0.005341	-0.041199	0.005035	-0.007324	-0.003967	0.047913	0.038452	0.001068	-0.087891	-0.009766	-0.045929	-0.004578	-0.012665	-0.070343	0.019684	0.007629	-0.00061	-0.043335	0.96802	0.036469	0.00061	0.006256	0.061951	-0.56	0.12116	0.009766	0.09079	-0.037079	-2.484	-0.021362	-0.00473	-0.014191
33.601	0.00412	-0.046082	-0.0177	0.002899	0.001068	0.048523	0.011597	0.005493	-0.10208	-0.025635	-0.029144	0.004578	-0.000305	-0.026855	0.066376	0.007477	-0.013733	0.033722	-0.52765	0.11551	0.095215	-0.03006	-0.058441	-0.63065	0.001831	0.00946	-0.000916	-0.019684	-1.33	-0.17166	0.003815	-0.011292
33.602	0.008087	-0.024109	-0.018768	0.005646	-0.001373	0.038147	0.015717	0.008545	-0.10315	-0.034332	0.017548	-0.002594	0.004425	-0.033722	0.15839	0.013428	-0.001831	0.041962	-0.64835	0.18051	0.17319	0.00885	-0.2684	-0.72006	0.14221	0.001526	0.055237	0.041351	-0.34378	-0.033722	0.000458	-0.015106
